# Blender OBJ Export - CircuitOverlord
# Fight Virus Game Assets

o CircuitOverlord

# Vertices (14)
v 0.000000 -5.600000 0.000000
v 0.000000 5.600000 0.000000
v 5.600000 -5.600000 0.000000
v 5.600000 5.600000 0.000000
v 2.800000 -5.600000 4.849742
v 2.800000 5.600000 4.849742
v -2.800000 -5.600000 4.849742
v -2.800000 5.600000 4.849742
v -5.600000 -5.600000 0.000000
v -5.600000 5.600000 0.000000
v -2.800000 -5.600000 -4.849742
v -2.800000 5.600000 -4.849742
v 2.800000 -5.600000 -4.849742
v 2.800000 5.600000 -4.849742

# Faces (24)
f 1 5 3
f 2 4 6
f 3 5 6
f 3 6 4
f 1 7 5
f 2 6 8
f 5 7 8
f 5 8 6
f 1 9 7
f 2 8 10
f 7 9 10
f 7 10 8
f 1 11 9
f 2 10 12
f 9 11 12
f 9 12 10
f 1 13 11
f 2 12 14
f 11 13 14
f 11 14 12
f 1 3 13
f 2 14 4
f 13 3 4
f 13 4 14
