# Blender OBJ Export - DataWyrm
# Fight Virus Game Assets

o DataWyrm

# Vertices (26)
v 0.000000 -6.000000 0.000000
v 0.000000 6.000000 0.000000
v 3.200000 -6.000000 0.000000
v 3.200000 6.000000 0.000000
v 2.771281 -6.000000 1.600000
v 2.771281 6.000000 1.600000
v 1.600000 -6.000000 2.771281
v 1.600000 6.000000 2.771281
v 0.000000 -6.000000 3.200000
v 0.000000 6.000000 3.200000
v -1.600000 -6.000000 2.771281
v -1.600000 6.000000 2.771281
v -2.771281 -6.000000 1.600000
v -2.771281 6.000000 1.600000
v -3.200000 -6.000000 0.000000
v -3.200000 6.000000 0.000000
v -2.771281 -6.000000 -1.600000
v -2.771281 6.000000 -1.600000
v -1.600000 -6.000000 -2.771281
v -1.600000 6.000000 -2.771281
v -0.000000 -6.000000 -3.200000
v -0.000000 6.000000 -3.200000
v 1.600000 -6.000000 -2.771281
v 1.600000 6.000000 -2.771281
v 2.771281 -6.000000 -1.600000
v 2.771281 6.000000 -1.600000

# Faces (48)
f 1 5 3
f 2 4 6
f 3 5 6
f 3 6 4
f 1 7 5
f 2 6 8
f 5 7 8
f 5 8 6
f 1 9 7
f 2 8 10
f 7 9 10
f 7 10 8
f 1 11 9
f 2 10 12
f 9 11 12
f 9 12 10
f 1 13 11
f 2 12 14
f 11 13 14
f 11 14 12
f 1 15 13
f 2 14 16
f 13 15 16
f 13 16 14
f 1 17 15
f 2 16 18
f 15 17 18
f 15 18 16
f 1 19 17
f 2 18 20
f 17 19 20
f 17 20 18
f 1 21 19
f 2 20 22
f 19 21 22
f 19 22 20
f 1 23 21
f 2 22 24
f 21 23 24
f 21 24 22
f 1 25 23
f 2 24 26
f 23 25 26
f 23 26 24
f 1 3 25
f 2 26 4
f 25 3 4
f 25 4 26
