# Blender OBJ Export - LadyBugSentinel
# Fight Virus Game Assets

o LadyBugSentinel

# Vertices (361)
v 0.000000 4.680000 0.000000
v 0.000000 4.680000 0.000000
v 0.000000 4.680000 0.000000
v 0.000000 4.680000 0.000000
v 0.000000 4.680000 0.000000
v 0.000000 4.680000 0.000000
v 0.000000 4.680000 0.000000
v 0.000000 4.680000 0.000000
v 0.000000 4.680000 0.000000
v 0.000000 4.680000 0.000000
v 0.000000 4.680000 0.000000
v 0.000000 4.680000 0.000000
v 0.000000 4.680000 0.000000
v 0.000000 4.680000 0.000000
v 0.000000 4.680000 0.000000
v 0.000000 4.680000 0.000000
v 0.000000 4.680000 0.000000
v 0.000000 4.680000 0.000000
v 0.000000 4.680000 0.000000
v 0.812673 4.608900 0.000000
v 0.763663 4.608900 0.277951
v 0.622544 4.608900 0.522376
v 0.406337 4.608900 0.703796
v 0.141119 4.608900 0.800327
v -0.141119 4.608900 0.800327
v -0.406337 4.608900 0.703796
v -0.622544 4.608900 0.522376
v -0.763663 4.608900 0.277951
v -0.812673 4.608900 0.000000
v -0.763663 4.608900 -0.277951
v -0.622544 4.608900 -0.522376
v -0.406337 4.608900 -0.703796
v -0.141119 4.608900 -0.800327
v 0.141119 4.608900 -0.800327
v 0.406337 4.608900 -0.703796
v 0.622544 4.608900 -0.522376
v 0.763663 4.608900 -0.277951
v 0.812673 4.608900 -0.000000
v 1.600654 4.397761 0.000000
v 1.504123 4.397761 0.547456
v 1.226172 4.397761 1.028881
v 0.800327 4.397761 1.386207
v 0.277951 4.397761 1.576337
v -0.277951 4.397761 1.576337
v -0.800327 4.397761 1.386207
v -1.226172 4.397761 1.028881
v -1.504123 4.397761 0.547456
v -1.600654 4.397761 0.000000
v -1.504123 4.397761 -0.547456
v -1.226172 4.397761 -1.028881
v -0.800327 4.397761 -1.386207
v -0.277951 4.397761 -1.576337
v 0.277951 4.397761 -1.576337
v 0.800327 4.397761 -1.386207
v 1.226172 4.397761 -1.028881
v 1.504123 4.397761 -0.547456
v 1.600654 4.397761 -0.000000
v 2.340000 4.052999 0.000000
v 2.198881 4.052999 0.800327
v 1.792544 4.052999 1.504123
v 1.170000 4.052999 2.026499
v 0.406337 4.052999 2.304450
v -0.406337 4.052999 2.304450
v -1.170000 4.052999 2.026499
v -1.792544 4.052999 1.504123
v -2.198881 4.052999 0.800327
v -2.340000 4.052999 0.000000
v -2.198881 4.052999 -0.800327
v -1.792544 4.052999 -1.504123
v -1.170000 4.052999 -2.026499
v -0.406337 4.052999 -2.304450
v 0.406337 4.052999 -2.304450
v 1.170000 4.052999 -2.026499
v 1.792544 4.052999 -1.504123
v 2.198881 4.052999 -0.800327
v 2.340000 4.052999 -0.000000
v 3.008246 3.585088 0.000000
v 2.826827 3.585088 1.028881
v 2.304450 3.585088 1.933663
v 1.504123 3.585088 2.605217
v 0.522376 3.585088 2.962544
v -0.522376 3.585088 2.962544
v -1.504123 3.585088 2.605217
v -2.304450 3.585088 1.933663
v -2.826827 3.585088 1.028881
v -3.008246 3.585088 0.000000
v -2.826827 3.585088 -1.028881
v -2.304450 3.585088 -1.933663
v -1.504123 3.585088 -2.605217
v -0.522376 3.585088 -2.962544
v 0.522376 3.585088 -2.962544
v 1.504123 3.585088 -2.605217
v 2.304450 3.585088 -1.933663
v 2.826827 3.585088 -1.028881
v 3.008246 3.585088 -0.000000
v 3.585088 3.008246 0.000000
v 3.368881 3.008246 1.226172
v 2.746337 3.008246 2.304450
v 1.792544 3.008246 3.104777
v 0.622544 3.008246 3.530622
v -0.622544 3.008246 3.530622
v -1.792544 3.008246 3.104777
v -2.746337 3.008246 2.304450
v -3.368881 3.008246 1.226172
v -3.585088 3.008246 0.000000
v -3.368881 3.008246 -1.226172
v -2.746337 3.008246 -2.304450
v -1.792544 3.008246 -3.104777
v -0.622544 3.008246 -3.530622
v 0.622544 3.008246 -3.530622
v 1.792544 3.008246 -3.104777
v 2.746337 3.008246 -2.304450
v 3.368881 3.008246 -1.226172
v 3.585088 3.008246 -0.000000
v 4.052999 2.340000 0.000000
v 3.808573 2.340000 1.386207
v 3.104777 2.340000 2.605217
v 2.026499 2.340000 3.510000
v 0.703796 2.340000 3.991425
v -0.703796 2.340000 3.991425
v -2.026499 2.340000 3.510000
v -3.104777 2.340000 2.605217
v -3.808573 2.340000 1.386207
v -4.052999 2.340000 0.000000
v -3.808573 2.340000 -1.386207
v -3.104777 2.340000 -2.605217
v -2.026499 2.340000 -3.510000
v -0.703796 2.340000 -3.991425
v 0.703796 2.340000 -3.991425
v 2.026499 2.340000 -3.510000
v 3.104777 2.340000 -2.605217
v 3.808573 2.340000 -1.386207
v 4.052999 2.340000 -0.000000
v 4.397761 1.600654 0.000000
v 4.132544 1.600654 1.504123
v 3.368881 1.600654 2.826827
v 2.198881 1.600654 3.808573
v 0.763663 1.600654 4.330950
v -0.763663 1.600654 4.330950
v -2.198881 1.600654 3.808573
v -3.368881 1.600654 2.826827
v -4.132544 1.600654 1.504123
v -4.397761 1.600654 0.000000
v -4.132544 1.600654 -1.504123
v -3.368881 1.600654 -2.826827
v -2.198881 1.600654 -3.808573
v -0.763663 1.600654 -4.330950
v 0.763663 1.600654 -4.330950
v 2.198881 1.600654 -3.808573
v 3.368881 1.600654 -2.826827
v 4.132544 1.600654 -1.504123
v 4.397761 1.600654 -0.000000
v 4.608900 0.812673 0.000000
v 4.330950 0.812673 1.576337
v 3.530622 0.812673 2.962544
v 2.304450 0.812673 3.991425
v 0.800327 0.812673 4.538881
v -0.800327 0.812673 4.538881
v -2.304450 0.812673 3.991425
v -3.530622 0.812673 2.962544
v -4.330950 0.812673 1.576337
v -4.608900 0.812673 0.000000
v -4.330950 0.812673 -1.576337
v -3.530622 0.812673 -2.962544
v -2.304450 0.812673 -3.991425
v -0.800327 0.812673 -4.538881
v 0.800327 0.812673 -4.538881
v 2.304450 0.812673 -3.991425
v 3.530622 0.812673 -2.962544
v 4.330950 0.812673 -1.576337
v 4.608900 0.812673 -0.000000
v 4.680000 0.000000 0.000000
v 4.397761 0.000000 1.600654
v 3.585088 0.000000 3.008246
v 2.340000 0.000000 4.052999
v 0.812673 0.000000 4.608900
v -0.812673 0.000000 4.608900
v -2.340000 0.000000 4.052999
v -3.585088 0.000000 3.008246
v -4.397761 0.000000 1.600654
v -4.680000 0.000000 0.000000
v -4.397761 0.000000 -1.600654
v -3.585088 0.000000 -3.008246
v -2.340000 0.000000 -4.052999
v -0.812673 0.000000 -4.608900
v 0.812673 0.000000 -4.608900
v 2.340000 0.000000 -4.052999
v 3.585088 0.000000 -3.008246
v 4.397761 0.000000 -1.600654
v 4.680000 0.000000 -0.000000
v 4.608900 -0.812673 0.000000
v 4.330950 -0.812673 1.576337
v 3.530622 -0.812673 2.962544
v 2.304450 -0.812673 3.991425
v 0.800327 -0.812673 4.538881
v -0.800327 -0.812673 4.538881
v -2.304450 -0.812673 3.991425
v -3.530622 -0.812673 2.962544
v -4.330950 -0.812673 1.576337
v -4.608900 -0.812673 0.000000
v -4.330950 -0.812673 -1.576337
v -3.530622 -0.812673 -2.962544
v -2.304450 -0.812673 -3.991425
v -0.800327 -0.812673 -4.538881
v 0.800327 -0.812673 -4.538881
v 2.304450 -0.812673 -3.991425
v 3.530622 -0.812673 -2.962544
v 4.330950 -0.812673 -1.576337
v 4.608900 -0.812673 -0.000000
v 4.397761 -1.600654 0.000000
v 4.132544 -1.600654 1.504123
v 3.368881 -1.600654 2.826827
v 2.198881 -1.600654 3.808573
v 0.763663 -1.600654 4.330950
v -0.763663 -1.600654 4.330950
v -2.198881 -1.600654 3.808573
v -3.368881 -1.600654 2.826827
v -4.132544 -1.600654 1.504123
v -4.397761 -1.600654 0.000000
v -4.132544 -1.600654 -1.504123
v -3.368881 -1.600654 -2.826827
v -2.198881 -1.600654 -3.808573
v -0.763663 -1.600654 -4.330950
v 0.763663 -1.600654 -4.330950
v 2.198881 -1.600654 -3.808573
v 3.368881 -1.600654 -2.826827
v 4.132544 -1.600654 -1.504123
v 4.397761 -1.600654 -0.000000
v 4.052999 -2.340000 0.000000
v 3.808573 -2.340000 1.386207
v 3.104777 -2.340000 2.605217
v 2.026499 -2.340000 3.510000
v 0.703796 -2.340000 3.991425
v -0.703796 -2.340000 3.991425
v -2.026499 -2.340000 3.510000
v -3.104777 -2.340000 2.605217
v -3.808573 -2.340000 1.386207
v -4.052999 -2.340000 0.000000
v -3.808573 -2.340000 -1.386207
v -3.104777 -2.340000 -2.605217
v -2.026499 -2.340000 -3.510000
v -0.703796 -2.340000 -3.991425
v 0.703796 -2.340000 -3.991425
v 2.026499 -2.340000 -3.510000
v 3.104777 -2.340000 -2.605217
v 3.808573 -2.340000 -1.386207
v 4.052999 -2.340000 -0.000000
v 3.585088 -3.008246 0.000000
v 3.368881 -3.008246 1.226172
v 2.746337 -3.008246 2.304450
v 1.792544 -3.008246 3.104777
v 0.622544 -3.008246 3.530622
v -0.622544 -3.008246 3.530622
v -1.792544 -3.008246 3.104777
v -2.746337 -3.008246 2.304450
v -3.368881 -3.008246 1.226172
v -3.585088 -3.008246 0.000000
v -3.368881 -3.008246 -1.226172
v -2.746337 -3.008246 -2.304450
v -1.792544 -3.008246 -3.104777
v -0.622544 -3.008246 -3.530622
v 0.622544 -3.008246 -3.530622
v 1.792544 -3.008246 -3.104777
v 2.746337 -3.008246 -2.304450
v 3.368881 -3.008246 -1.226172
v 3.585088 -3.008246 -0.000000
v 3.008246 -3.585088 0.000000
v 2.826827 -3.585088 1.028881
v 2.304450 -3.585088 1.933663
v 1.504123 -3.585088 2.605217
v 0.522376 -3.585088 2.962544
v -0.522376 -3.585088 2.962544
v -1.504123 -3.585088 2.605217
v -2.304450 -3.585088 1.933663
v -2.826827 -3.585088 1.028881
v -3.008246 -3.585088 0.000000
v -2.826827 -3.585088 -1.028881
v -2.304450 -3.585088 -1.933663
v -1.504123 -3.585088 -2.605217
v -0.522376 -3.585088 -2.962544
v 0.522376 -3.585088 -2.962544
v 1.504123 -3.585088 -2.605217
v 2.304450 -3.585088 -1.933663
v 2.826827 -3.585088 -1.028881
v 3.008246 -3.585088 -0.000000
v 2.340000 -4.052999 0.000000
v 2.198881 -4.052999 0.800327
v 1.792544 -4.052999 1.504123
v 1.170000 -4.052999 2.026499
v 0.406337 -4.052999 2.304450
v -0.406337 -4.052999 2.304450
v -1.170000 -4.052999 2.026499
v -1.792544 -4.052999 1.504123
v -2.198881 -4.052999 0.800327
v -2.340000 -4.052999 0.000000
v -2.198881 -4.052999 -0.800327
v -1.792544 -4.052999 -1.504123
v -1.170000 -4.052999 -2.026499
v -0.406337 -4.052999 -2.304450
v 0.406337 -4.052999 -2.304450
v 1.170000 -4.052999 -2.026499
v 1.792544 -4.052999 -1.504123
v 2.198881 -4.052999 -0.800327
v 2.340000 -4.052999 -0.000000
v 1.600654 -4.397761 0.000000
v 1.504123 -4.397761 0.547456
v 1.226172 -4.397761 1.028881
v 0.800327 -4.397761 1.386207
v 0.277951 -4.397761 1.576337
v -0.277951 -4.397761 1.576337
v -0.800327 -4.397761 1.386207
v -1.226172 -4.397761 1.028881
v -1.504123 -4.397761 0.547456
v -1.600654 -4.397761 0.000000
v -1.504123 -4.397761 -0.547456
v -1.226172 -4.397761 -1.028881
v -0.800327 -4.397761 -1.386207
v -0.277951 -4.397761 -1.576337
v 0.277951 -4.397761 -1.576337
v 0.800327 -4.397761 -1.386207
v 1.226172 -4.397761 -1.028881
v 1.504123 -4.397761 -0.547456
v 1.600654 -4.397761 -0.000000
v 0.812673 -4.608900 0.000000
v 0.763663 -4.608900 0.277951
v 0.622544 -4.608900 0.522376
v 0.406337 -4.608900 0.703796
v 0.141119 -4.608900 0.800327
v -0.141119 -4.608900 0.800327
v -0.406337 -4.608900 0.703796
v -0.622544 -4.608900 0.522376
v -0.763663 -4.608900 0.277951
v -0.812673 -4.608900 0.000000
v -0.763663 -4.608900 -0.277951
v -0.622544 -4.608900 -0.522376
v -0.406337 -4.608900 -0.703796
v -0.141119 -4.608900 -0.800327
v 0.141119 -4.608900 -0.800327
v 0.406337 -4.608900 -0.703796
v 0.622544 -4.608900 -0.522376
v 0.763663 -4.608900 -0.277951
v 0.812673 -4.608900 -0.000000
v 0.000000 -4.680000 0.000000
v 0.000000 -4.680000 0.000000
v 0.000000 -4.680000 0.000000
v 0.000000 -4.680000 0.000000
v 0.000000 -4.680000 0.000000
v -0.000000 -4.680000 0.000000
v -0.000000 -4.680000 0.000000
v -0.000000 -4.680000 0.000000
v -0.000000 -4.680000 0.000000
v -0.000000 -4.680000 0.000000
v -0.000000 -4.680000 -0.000000
v -0.000000 -4.680000 -0.000000
v -0.000000 -4.680000 -0.000000
v -0.000000 -4.680000 -0.000000
v 0.000000 -4.680000 -0.000000
v 0.000000 -4.680000 -0.000000
v 0.000000 -4.680000 -0.000000
v 0.000000 -4.680000 -0.000000
v 0.000000 -4.680000 -0.000000

# Faces (648)
f 1 20 2
f 20 21 2
f 2 21 3
f 21 22 3
f 3 22 4
f 22 23 4
f 4 23 5
f 23 24 5
f 5 24 6
f 24 25 6
f 6 25 7
f 25 26 7
f 7 26 8
f 26 27 8
f 8 27 9
f 27 28 9
f 9 28 10
f 28 29 10
f 10 29 11
f 29 30 11
f 11 30 12
f 30 31 12
f 12 31 13
f 31 32 13
f 13 32 14
f 32 33 14
f 14 33 15
f 33 34 15
f 15 34 16
f 34 35 16
f 16 35 17
f 35 36 17
f 17 36 18
f 36 37 18
f 18 37 19
f 37 38 19
f 20 39 21
f 39 40 21
f 21 40 22
f 40 41 22
f 22 41 23
f 41 42 23
f 23 42 24
f 42 43 24
f 24 43 25
f 43 44 25
f 25 44 26
f 44 45 26
f 26 45 27
f 45 46 27
f 27 46 28
f 46 47 28
f 28 47 29
f 47 48 29
f 29 48 30
f 48 49 30
f 30 49 31
f 49 50 31
f 31 50 32
f 50 51 32
f 32 51 33
f 51 52 33
f 33 52 34
f 52 53 34
f 34 53 35
f 53 54 35
f 35 54 36
f 54 55 36
f 36 55 37
f 55 56 37
f 37 56 38
f 56 57 38
f 39 58 40
f 58 59 40
f 40 59 41
f 59 60 41
f 41 60 42
f 60 61 42
f 42 61 43
f 61 62 43
f 43 62 44
f 62 63 44
f 44 63 45
f 63 64 45
f 45 64 46
f 64 65 46
f 46 65 47
f 65 66 47
f 47 66 48
f 66 67 48
f 48 67 49
f 67 68 49
f 49 68 50
f 68 69 50
f 50 69 51
f 69 70 51
f 51 70 52
f 70 71 52
f 52 71 53
f 71 72 53
f 53 72 54
f 72 73 54
f 54 73 55
f 73 74 55
f 55 74 56
f 74 75 56
f 56 75 57
f 75 76 57
f 58 77 59
f 77 78 59
f 59 78 60
f 78 79 60
f 60 79 61
f 79 80 61
f 61 80 62
f 80 81 62
f 62 81 63
f 81 82 63
f 63 82 64
f 82 83 64
f 64 83 65
f 83 84 65
f 65 84 66
f 84 85 66
f 66 85 67
f 85 86 67
f 67 86 68
f 86 87 68
f 68 87 69
f 87 88 69
f 69 88 70
f 88 89 70
f 70 89 71
f 89 90 71
f 71 90 72
f 90 91 72
f 72 91 73
f 91 92 73
f 73 92 74
f 92 93 74
f 74 93 75
f 93 94 75
f 75 94 76
f 94 95 76
f 77 96 78
f 96 97 78
f 78 97 79
f 97 98 79
f 79 98 80
f 98 99 80
f 80 99 81
f 99 100 81
f 81 100 82
f 100 101 82
f 82 101 83
f 101 102 83
f 83 102 84
f 102 103 84
f 84 103 85
f 103 104 85
f 85 104 86
f 104 105 86
f 86 105 87
f 105 106 87
f 87 106 88
f 106 107 88
f 88 107 89
f 107 108 89
f 89 108 90
f 108 109 90
f 90 109 91
f 109 110 91
f 91 110 92
f 110 111 92
f 92 111 93
f 111 112 93
f 93 112 94
f 112 113 94
f 94 113 95
f 113 114 95
f 96 115 97
f 115 116 97
f 97 116 98
f 116 117 98
f 98 117 99
f 117 118 99
f 99 118 100
f 118 119 100
f 100 119 101
f 119 120 101
f 101 120 102
f 120 121 102
f 102 121 103
f 121 122 103
f 103 122 104
f 122 123 104
f 104 123 105
f 123 124 105
f 105 124 106
f 124 125 106
f 106 125 107
f 125 126 107
f 107 126 108
f 126 127 108
f 108 127 109
f 127 128 109
f 109 128 110
f 128 129 110
f 110 129 111
f 129 130 111
f 111 130 112
f 130 131 112
f 112 131 113
f 131 132 113
f 113 132 114
f 132 133 114
f 115 134 116
f 134 135 116
f 116 135 117
f 135 136 117
f 117 136 118
f 136 137 118
f 118 137 119
f 137 138 119
f 119 138 120
f 138 139 120
f 120 139 121
f 139 140 121
f 121 140 122
f 140 141 122
f 122 141 123
f 141 142 123
f 123 142 124
f 142 143 124
f 124 143 125
f 143 144 125
f 125 144 126
f 144 145 126
f 126 145 127
f 145 146 127
f 127 146 128
f 146 147 128
f 128 147 129
f 147 148 129
f 129 148 130
f 148 149 130
f 130 149 131
f 149 150 131
f 131 150 132
f 150 151 132
f 132 151 133
f 151 152 133
f 134 153 135
f 153 154 135
f 135 154 136
f 154 155 136
f 136 155 137
f 155 156 137
f 137 156 138
f 156 157 138
f 138 157 139
f 157 158 139
f 139 158 140
f 158 159 140
f 140 159 141
f 159 160 141
f 141 160 142
f 160 161 142
f 142 161 143
f 161 162 143
f 143 162 144
f 162 163 144
f 144 163 145
f 163 164 145
f 145 164 146
f 164 165 146
f 146 165 147
f 165 166 147
f 147 166 148
f 166 167 148
f 148 167 149
f 167 168 149
f 149 168 150
f 168 169 150
f 150 169 151
f 169 170 151
f 151 170 152
f 170 171 152
f 153 172 154
f 172 173 154
f 154 173 155
f 173 174 155
f 155 174 156
f 174 175 156
f 156 175 157
f 175 176 157
f 157 176 158
f 176 177 158
f 158 177 159
f 177 178 159
f 159 178 160
f 178 179 160
f 160 179 161
f 179 180 161
f 161 180 162
f 180 181 162
f 162 181 163
f 181 182 163
f 163 182 164
f 182 183 164
f 164 183 165
f 183 184 165
f 165 184 166
f 184 185 166
f 166 185 167
f 185 186 167
f 167 186 168
f 186 187 168
f 168 187 169
f 187 188 169
f 169 188 170
f 188 189 170
f 170 189 171
f 189 190 171
f 172 191 173
f 191 192 173
f 173 192 174
f 192 193 174
f 174 193 175
f 193 194 175
f 175 194 176
f 194 195 176
f 176 195 177
f 195 196 177
f 177 196 178
f 196 197 178
f 178 197 179
f 197 198 179
f 179 198 180
f 198 199 180
f 180 199 181
f 199 200 181
f 181 200 182
f 200 201 182
f 182 201 183
f 201 202 183
f 183 202 184
f 202 203 184
f 184 203 185
f 203 204 185
f 185 204 186
f 204 205 186
f 186 205 187
f 205 206 187
f 187 206 188
f 206 207 188
f 188 207 189
f 207 208 189
f 189 208 190
f 208 209 190
f 191 210 192
f 210 211 192
f 192 211 193
f 211 212 193
f 193 212 194
f 212 213 194
f 194 213 195
f 213 214 195
f 195 214 196
f 214 215 196
f 196 215 197
f 215 216 197
f 197 216 198
f 216 217 198
f 198 217 199
f 217 218 199
f 199 218 200
f 218 219 200
f 200 219 201
f 219 220 201
f 201 220 202
f 220 221 202
f 202 221 203
f 221 222 203
f 203 222 204
f 222 223 204
f 204 223 205
f 223 224 205
f 205 224 206
f 224 225 206
f 206 225 207
f 225 226 207
f 207 226 208
f 226 227 208
f 208 227 209
f 227 228 209
f 210 229 211
f 229 230 211
f 211 230 212
f 230 231 212
f 212 231 213
f 231 232 213
f 213 232 214
f 232 233 214
f 214 233 215
f 233 234 215
f 215 234 216
f 234 235 216
f 216 235 217
f 235 236 217
f 217 236 218
f 236 237 218
f 218 237 219
f 237 238 219
f 219 238 220
f 238 239 220
f 220 239 221
f 239 240 221
f 221 240 222
f 240 241 222
f 222 241 223
f 241 242 223
f 223 242 224
f 242 243 224
f 224 243 225
f 243 244 225
f 225 244 226
f 244 245 226
f 226 245 227
f 245 246 227
f 227 246 228
f 246 247 228
f 229 248 230
f 248 249 230
f 230 249 231
f 249 250 231
f 231 250 232
f 250 251 232
f 232 251 233
f 251 252 233
f 233 252 234
f 252 253 234
f 234 253 235
f 253 254 235
f 235 254 236
f 254 255 236
f 236 255 237
f 255 256 237
f 237 256 238
f 256 257 238
f 238 257 239
f 257 258 239
f 239 258 240
f 258 259 240
f 240 259 241
f 259 260 241
f 241 260 242
f 260 261 242
f 242 261 243
f 261 262 243
f 243 262 244
f 262 263 244
f 244 263 245
f 263 264 245
f 245 264 246
f 264 265 246
f 246 265 247
f 265 266 247
f 248 267 249
f 267 268 249
f 249 268 250
f 268 269 250
f 250 269 251
f 269 270 251
f 251 270 252
f 270 271 252
f 252 271 253
f 271 272 253
f 253 272 254
f 272 273 254
f 254 273 255
f 273 274 255
f 255 274 256
f 274 275 256
f 256 275 257
f 275 276 257
f 257 276 258
f 276 277 258
f 258 277 259
f 277 278 259
f 259 278 260
f 278 279 260
f 260 279 261
f 279 280 261
f 261 280 262
f 280 281 262
f 262 281 263
f 281 282 263
f 263 282 264
f 282 283 264
f 264 283 265
f 283 284 265
f 265 284 266
f 284 285 266
f 267 286 268
f 286 287 268
f 268 287 269
f 287 288 269
f 269 288 270
f 288 289 270
f 270 289 271
f 289 290 271
f 271 290 272
f 290 291 272
f 272 291 273
f 291 292 273
f 273 292 274
f 292 293 274
f 274 293 275
f 293 294 275
f 275 294 276
f 294 295 276
f 276 295 277
f 295 296 277
f 277 296 278
f 296 297 278
f 278 297 279
f 297 298 279
f 279 298 280
f 298 299 280
f 280 299 281
f 299 300 281
f 281 300 282
f 300 301 282
f 282 301 283
f 301 302 283
f 283 302 284
f 302 303 284
f 284 303 285
f 303 304 285
f 286 305 287
f 305 306 287
f 287 306 288
f 306 307 288
f 288 307 289
f 307 308 289
f 289 308 290
f 308 309 290
f 290 309 291
f 309 310 291
f 291 310 292
f 310 311 292
f 292 311 293
f 311 312 293
f 293 312 294
f 312 313 294
f 294 313 295
f 313 314 295
f 295 314 296
f 314 315 296
f 296 315 297
f 315 316 297
f 297 316 298
f 316 317 298
f 298 317 299
f 317 318 299
f 299 318 300
f 318 319 300
f 300 319 301
f 319 320 301
f 301 320 302
f 320 321 302
f 302 321 303
f 321 322 303
f 303 322 304
f 322 323 304
f 305 324 306
f 324 325 306
f 306 325 307
f 325 326 307
f 307 326 308
f 326 327 308
f 308 327 309
f 327 328 309
f 309 328 310
f 328 329 310
f 310 329 311
f 329 330 311
f 311 330 312
f 330 331 312
f 312 331 313
f 331 332 313
f 313 332 314
f 332 333 314
f 314 333 315
f 333 334 315
f 315 334 316
f 334 335 316
f 316 335 317
f 335 336 317
f 317 336 318
f 336 337 318
f 318 337 319
f 337 338 319
f 319 338 320
f 338 339 320
f 320 339 321
f 339 340 321
f 321 340 322
f 340 341 322
f 322 341 323
f 341 342 323
f 324 343 325
f 343 344 325
f 325 344 326
f 344 345 326
f 326 345 327
f 345 346 327
f 327 346 328
f 346 347 328
f 328 347 329
f 347 348 329
f 329 348 330
f 348 349 330
f 330 349 331
f 349 350 331
f 331 350 332
f 350 351 332
f 332 351 333
f 351 352 333
f 333 352 334
f 352 353 334
f 334 353 335
f 353 354 335
f 335 354 336
f 354 355 336
f 336 355 337
f 355 356 337
f 337 356 338
f 356 357 338
f 338 357 339
f 357 358 339
f 339 358 340
f 358 359 340
f 340 359 341
f 359 360 341
f 341 360 342
f 360 361 342
