# Blender OBJ Export - PixelReaper
# Fight Virus Game Assets

o PixelReaper

# Vertices (12)
v 0.000000 9.900000 0.000000
v 0.000000 0.000000 0.000000
v 4.050000 0.000000 0.000000
v 3.276519 0.000000 2.380530
v 1.251519 0.000000 3.851779
v -1.251519 0.000000 3.851779
v -3.276519 0.000000 2.380530
v -4.050000 0.000000 0.000000
v -3.276519 0.000000 -2.380530
v -1.251519 0.000000 -3.851779
v 1.251519 0.000000 -3.851779
v 3.276519 0.000000 -2.380530

# Faces (20)
f 1 3 4
f 2 4 3
f 1 4 5
f 2 5 4
f 1 5 6
f 2 6 5
f 1 6 7
f 2 7 6
f 1 7 8
f 2 8 7
f 1 8 9
f 2 9 8
f 1 9 10
f 2 10 9
f 1 10 11
f 2 11 10
f 1 11 12
f 2 12 11
f 1 12 3
f 2 3 12
