# Blender OBJ Export - BlasterVirus
# Fight Virus Game Assets

o BlasterVirus

# Vertices (14)
v 0.000000 2.600000 0.000000
v 0.000000 0.000000 0.000000
v 1.300000 0.000000 0.000000
v 1.125833 0.000000 0.650000
v 0.650000 0.000000 1.125833
v 0.000000 0.000000 1.300000
v -0.650000 0.000000 1.125833
v -1.125833 0.000000 0.650000
v -1.300000 0.000000 0.000000
v -1.125833 0.000000 -0.650000
v -0.650000 0.000000 -1.125833
v -0.000000 0.000000 -1.300000
v 0.650000 0.000000 -1.125833
v 1.125833 0.000000 -0.650000

# Faces (24)
f 1 3 4
f 2 4 3
f 1 4 5
f 2 5 4
f 1 5 6
f 2 6 5
f 1 6 7
f 2 7 6
f 1 7 8
f 2 8 7
f 1 8 9
f 2 9 8
f 1 9 10
f 2 10 9
f 1 10 11
f 2 11 10
f 1 11 12
f 2 12 11
f 1 12 13
f 2 13 12
f 1 13 14
f 2 14 13
f 1 14 3
f 2 3 14
