# Blender OBJ Export - WormVirus
# Fight Virus Game Assets

o WormVirus

# Vertices (18)
v 0.000000 -1.000000 0.000000
v 0.000000 1.000000 0.000000
v 0.500000 -1.000000 0.000000
v 0.500000 1.000000 0.000000
v 0.353553 -1.000000 0.353553
v 0.353553 1.000000 0.353553
v 0.000000 -1.000000 0.500000
v 0.000000 1.000000 0.500000
v -0.353553 -1.000000 0.353553
v -0.353553 1.000000 0.353553
v -0.500000 -1.000000 0.000000
v -0.500000 1.000000 0.000000
v -0.353553 -1.000000 -0.353553
v -0.353553 1.000000 -0.353553
v -0.000000 -1.000000 -0.500000
v -0.000000 1.000000 -0.500000
v 0.353553 -1.000000 -0.353553
v 0.353553 1.000000 -0.353553

# Faces (32)
f 1 5 3
f 2 4 6
f 3 5 6
f 3 6 4
f 1 7 5
f 2 6 8
f 5 7 8
f 5 8 6
f 1 9 7
f 2 8 10
f 7 9 10
f 7 10 8
f 1 11 9
f 2 10 12
f 9 11 12
f 9 12 10
f 1 13 11
f 2 12 14
f 11 13 14
f 11 14 12
f 1 15 13
f 2 14 16
f 13 15 16
f 13 16 14
f 1 17 15
f 2 16 18
f 15 17 18
f 15 18 16
f 1 3 17
f 2 18 4
f 17 3 4
f 17 4 18
